<?xml version="1.0" standalone="no"?><!DOCTYPE svg PUBLIC "-//W3C//DTD SVG 1.1//EN" "http://www.w3.org/Graphics/SVG/1.1/DTD/svg11.dtd"><svg t="1706885008891" class="icon" viewBox="0 0 1024 1024" version="1.1" xmlns="http://www.w3.org/2000/svg" p-id="6063" xmlns:xlink="http://www.w3.org/1999/xlink" width="200" height="200"><path d="M827 412H518.9c-20.5 0-38.9-12.3-49.2-30.7-12.3-22.5-36.9-36.9-67.2-36.9H188.3c-41 0-75.4 30.7-75.4 67.2v385.9c0 26.6 22.5 47.1 51.2 47.1h661.7c28.7 0 51.2-20.5 51.2-47.1V458.7c1.3-26.2-23.3-46.7-50-46.7z m0 0" fill="#B8B1FC" p-id="6064"></path><path d="M827 859H165.8c-36.9 0-65.1-26.6-65.1-61.5V411.6c0-45.1 41-83.6 89.7-83.6h214.3c32.8 0 63.1 16.4 79.5 45.1 8.2 14.3 22.5 22.5 36.9 22.5h308.1c36.9 0 65.1 26.6 65.1 61.5v338.8c-1.7 34.4-30.4 63.1-67.3 63.1zM188.3 356.7c-32.8 0-59.4 26.6-59.4 55.3v385.9c0 18.4 16.4 32.8 36.9 32.8h661.7c20.5 0 36.9-14.3 36.9-32.8V459.1c0-18.4-16.4-32.8-36.9-32.8H519.3c-24.6 0-49.2-14.3-63.1-38.9-10.2-18.4-30.7-30.7-53.2-30.7H188.3z m0-18.8" fill="#8E50D6" p-id="6065"></path><path d="M516.9 681.4h-6.1C366.6 681.4 251 564.4 251 423v-66.4c0-143.4 117.7-258.4 259.8-258.4h6.1c142.1 0 259.8 117 259.8 258.4V421c0 143.4-117.7 260.4-259.8 260.4z m0 0" fill="#E7E7E7" p-id="6066"></path><path d="M710.7 697.6H314.5c-45.1 0-81.5-35.8-81.5-79V177.2c0-43.7 36.9-79 81.5-79h396.2c45.1 0 81.5 35.7 81.5 79v441.3c0.4 43.7-36.5 79.1-81.5 79.1z m-395.8-572c-28.7 0-53.3 23.8-53.3 51.6v441.3c0 27.8 24.6 51.6 53.3 51.6h396.2c28.7 0 53.3-23.8 53.3-51.6V177.2c0-27.8-24.6-51.6-53.3-51.6H314.9z m0 0" fill="#8E50D6" p-id="6067"></path><path d="M674.2 242.4H353.8c-8.2 0-14.3-6.1-14.3-14.3 0-8.2 6.1-14.3 14.3-14.3h320.4c8.2 0 14.3 6.1 14.3 14.3 0.1 8.1-6.1 14.3-14.3 14.3zM557.9 326h-204c-8.2 0-14.3-6.1-14.3-14.3 0-8.2 6.1-14.3 14.3-14.3h204c8.2 0 14.3 6.1 14.3 14.3 0 8.1-6.1 14.3-14.3 14.3z m56.9 0c-4.1 0-8.2-2.1-10.2-4.1-2-2.1-4.1-6.1-4.1-10.2s2.1-8.2 4.1-10.2c6.1-6.1 16.4-6.1 20.5 0 2 2 4.1 6.1 4.1 10.2s-2.1 8.2-4.1 10.2c-2.1 2-6.2 4.1-10.3 4.1z m0 0" fill="#8E50D6" p-id="6068"></path><path d="M857.8 481.2H537.4c-22.5 0-41-12.3-51.2-30.7-12.3-22.5-38.9-36.9-69.2-36.9H192.4c-43 0-77.4 30.7-77.4 67.2v385.9c0 26.6 24.6 47.1 53.3 47.1h692c28.7 0 53.3-20.5 53.3-47.1V527.9c-0.5-26.2-25.1-46.7-55.8-46.7z m0 0" fill="#9393E2" p-id="6069"></path><path d="M859.8 473H537.4c-22.5 0-41-10.2-51.2-26.6-12.3-18.4-38.9-32.8-69.2-32.8H192.4c-43 0-77.4 26.6-77.4 59.4v330.6c0 22.5 24.6 41 53.3 41h692c28.7 0 53.3-18.4 53.3-41v-290c-0.5-22.1-25.1-40.6-53.8-40.6z m0 0" fill="#B8B1FC" p-id="6070"></path><path d="M857.8 928.2h-692c-36.9 0-67.2-26.6-67.2-61.5V480.8c0-45.1 41-83.6 91.8-83.6h224.5c34.8 0 67.2 16.4 81.5 45.1 8.2 14.3 22.5 22.5 38.9 22.5h320.4c36.9 0 67.2 26.6 67.2 61.5l2 187.6c0 8.2-6.1 14.3-14.3 14.3-8.2 0-14.3-6.1-14.3-14.3l-2.1-187.6c0-18.4-18.4-32.8-38.9-32.8H534.9c-26.6 0-51.2-14.3-65.1-38.9-10.2-18.4-32.8-30.7-57.4-30.7H188.3c-34.8 0-63.1 24.6-63.1 53.3v385.9c0 16.4 18.4 32.8 38.9 32.8h692c20.5 0 38.9-14.3 38.9-32.8v-38.9c0-8.2 6.1-14.3 14.3-14.3 8.2 0 14.3 6.1 14.3 14.3v38.9c3.8 36.9-26.9 65.1-65.8 65.1z m0 0" fill="#8E50D6" p-id="6071"></path><path d="M913.1 785.6c-4.1 0-8.2-2-10.2-4.1-2-2-4.1-6.1-4.1-10.2s2.1-8.2 4.1-10.2c6.1-6.1 16.4-6.1 20.5 0 2.1 2.1 4.1 6.1 4.1 10.2s-2.1 8.2-4.1 10.2c-2.1 2.1-6.2 4.1-10.3 4.1z m0 0" fill="#8E50D6" p-id="6072"></path><path d="M419 683.2c0 41.6 22.2 80 58.2 100.8 36 20.8 80.4 20.8 116.4 0s58.2-59.2 58.2-100.8c0-41.6-22.2-80-58.2-100.8-36-20.8-80.4-20.8-116.4 0-36.1 20.8-58.2 59.2-58.2 100.8z m0 0" fill="#FFFFFF" p-id="6073"></path><path d="M516.9 744.7c-4.1 0-8.2-2.1-10.2-4.1l-41-41c-6.1-6.1-6.1-14.3 0-20.5 6.1-6.1 14.3-6.1 20.5 0l30.7 30.7 67.2-67.2c6.1-6.1 14.3-6.1 20.5 0 6.1 6.1 6.1 14.3 0 20.5l-77.4 77.4c-2.1 2.1-6.2 4.2-10.3 4.2z m0 0" fill="#8E50D6" p-id="6074"></path></svg>