<?xml version="1.0" standalone="no"?><!DOCTYPE svg PUBLIC "-//W3C//DTD SVG 1.1//EN" "http://www.w3.org/Graphics/SVG/1.1/DTD/svg11.dtd"><svg t="1706884879128" class="icon" viewBox="0 0 1024 1024" version="1.1" xmlns="http://www.w3.org/2000/svg" p-id="9507" xmlns:xlink="http://www.w3.org/1999/xlink" width="200" height="200"><path d="M512 0c282.76736 0 512 229.23264 512 512s-229.23264 512-512 512S0 794.76736 0 512 229.23264 0 512 0z m0 20.48C240.5376 20.48 20.48 240.5376 20.48 512s220.0576 491.52 491.52 491.52 491.52-220.0576 491.52-491.52S783.4624 20.48 512 20.48z" fill="#344866" p-id="9508"></path><path d="M512 512m-409.6 0a409.6 409.6 0 1 0 819.2 0 409.6 409.6 0 1 0-819.2 0Z" fill="#1F7BFF" opacity=".157" p-id="9509"></path><path d="M512 378.88l206.19264 84.34688A30.72 30.72 0 0 1 737.28 491.66336V675.84a61.44 61.44 0 0 1-61.44 61.44H348.16a61.44 61.44 0 0 1-61.44-61.44V491.66336a30.72 30.72 0 0 1 19.08736-28.43648L512 378.88z m-0.01024 22.12864l-198.43072 81.18272a10.24 10.24 0 0 0-6.28736 8.2432l-0.07168 1.2288V675.84a40.96 40.96 0 0 0 38.912 40.9088L348.16 716.8h327.68a40.96 40.96 0 0 0 40.9088-38.912L716.8 675.84V491.66336a10.24 10.24 0 0 0-5.25312-8.93952l-1.10592-0.53248-198.4512-81.18272z" fill="#344866" p-id="9510"></path><path d="M624.64 266.24a61.44 61.44 0 0 1 61.44 61.44v296.96a61.44 61.44 0 0 1-61.44 61.44H399.36a61.44 61.44 0 0 1-61.44-61.44V327.68a61.44 61.44 0 0 1 61.44-61.44h225.28z" fill="#344866" p-id="9511"></path><path d="M624.64 286.72H399.36a40.96 40.96 0 0 0-40.9088 38.912L358.4 327.68v296.96a40.96 40.96 0 0 0 38.912 40.9088L399.36 665.6h225.28a40.96 40.96 0 0 0 40.9088-38.912L665.6 624.64V327.68a40.96 40.96 0 0 0-38.912-40.9088L624.64 286.72z" fill="#FFFFFF" p-id="9512"></path><path d="M735.11936 495.02208a20.48 20.48 0 0 1 2.16064 9.15456V675.84a61.44 61.44 0 0 1-61.44 61.44H348.16a61.44 61.44 0 0 1-61.44-61.44V504.17664a20.48 20.48 0 0 1 29.63456-18.31936l186.49088 93.24544a20.48 20.48 0 0 0 18.30912 0l186.49088-93.24544a20.48 20.48 0 0 1 27.47392 9.1648z" fill="#344866" p-id="9513"></path><path d="M716.8 504.17664l-186.48064 93.24544a40.96 40.96 0 0 1-34.44736 1.01376l-2.19136-1.024L307.2 504.18688V675.84a40.96 40.96 0 0 0 38.912 40.9088L348.16 716.8h327.68a40.96 40.96 0 0 0 40.9088-38.912L716.8 675.84V504.17664z" fill="#1F7BFF" p-id="9514"></path><path d="M389.12 327.68m10.24 0l225.28 0q10.24 0 10.24 10.24l0 0q0 10.24-10.24 10.24l-225.28 0q-10.24 0-10.24-10.24l0 0q0-10.24 10.24-10.24Z" fill="#344866" p-id="9515"></path><path d="M471.04 399.36a20.48 20.48 0 0 1 20.48 20.48v61.44a20.48 20.48 0 0 1-20.48 20.48h-61.44a20.48 20.48 0 0 1-20.48-20.48v-61.44a20.48 20.48 0 0 1 20.48-20.48h61.44z m0 20.48h-61.44v61.44h61.44v-61.44z" fill="#344866" p-id="9516"></path><path d="M522.24 399.36m10.24 0l92.16 0q10.24 0 10.24 10.24l0 0q0 10.24-10.24 10.24l-92.16 0q-10.24 0-10.24-10.24l0 0q0-10.24 10.24-10.24Z" fill="#344866" p-id="9517"></path><path d="M522.24 481.28m10.24 0l92.16 0q10.24 0 10.24 10.24l0 0q0 10.24-10.24 10.24l-92.16 0q-10.24 0-10.24-10.24l0 0q0-10.24 10.24-10.24Z" fill="#344866" p-id="9518"></path><path d="M660.48 552.96C719.86176 552.96 768 601.09824 768 660.48S719.86176 768 660.48 768 552.96 719.86176 552.96 660.48 601.09824 552.96 660.48 552.96z" fill="#344866" p-id="9519"></path><path d="M660.48 573.44a87.04 87.04 0 1 0 0 174.08 87.04 87.04 0 0 0 0-174.08z" fill="#FFFFFF" p-id="9520"></path><path d="M674.88768 599.92064l31.60064 31.60064a10.24 10.24 0 0 1 0.84992 13.5168l-0.84992 0.96256a10.24 10.24 0 0 1-14.4896 0L670.63808 624.64v86.15936a10.24 10.24 0 0 1-20.48 0V624.64l-21.36064 21.36064a10.24 10.24 0 0 1-13.5168 0.84992l-0.95232-0.84992a10.24 10.24 0 0 1 0-14.47936l31.60064-31.5904a20.48 20.48 0 0 1 28.95872 0z" fill="#1F7BFF" p-id="9521"></path></svg>