<?xml version="1.0" standalone="no"?><!DOCTYPE svg PUBLIC "-//W3C//DTD SVG 1.1//EN" "http://www.w3.org/Graphics/SVG/1.1/DTD/svg11.dtd"><svg t="1706884755113" class="icon" viewBox="0 0 1024 1024" version="1.1" xmlns="http://www.w3.org/2000/svg" p-id="5561" xmlns:xlink="http://www.w3.org/1999/xlink" width="200" height="200"><path d="M510.293333 512m-469.333333 0a469.333333 469.333333 0 1 0 938.666667 0 469.333333 469.333333 0 1 0-938.666667 0Z" fill="#B3D3EF" p-id="5562" data-spm-anchor-id="a313x.search_index.0.i7.6a6d3a815M7aFg" class=""></path><path d="M521.386667 477.013333h60.586666l68.266667-155.306666-108.373333 108.373333zM498.346667 541.013333h-66.56l-59.733334 59.733334h99.84zM621.226667 536.746667L512.853333 644.266667l-75.946666 169.813333 278.186666-277.333333z" fill="#6898BC" p-id="5563"></path><path d="M496.64 545.28L401.066667 758.613333l279.04-277.333333H519.68L614.4 266.24 335.36 545.28z" fill="#EFCF48" p-id="5564"></path><path d="M672.426667 665.6m-51.2 0a51.2 51.2 0 1 0 102.4 0 51.2 51.2 0 1 0-102.4 0Z" fill="#FFFFFF" p-id="5565"></path><path d="M790.186667 305.493333m-51.2 0a51.2 51.2 0 1 0 102.4 0 51.2 51.2 0 1 0-102.4 0Z" fill="#FFFFFF" p-id="5566"></path><path d="M197.12 356.693333m-51.2 0a51.2 51.2 0 1 0 102.4 0 51.2 51.2 0 1 0-102.4 0Z" fill="#FFFFFF" p-id="5567"></path><path d="M996.693333 503.466667h-8.533333c-4.266667-256.853333-212.48-464.213333-469.333333-469.333334V25.6c0-5.12-3.413333-8.533333-8.533334-8.533333s-8.533333 3.413333-8.533333 8.533333v8.533333c-256.853333 5.12-465.066667 212.48-469.333333 469.333334h-8.533334c-5.12 0-8.533333 3.413333-8.533333 8.533333s3.413333 8.533333 8.533333 8.533333h8.533334c4.266667 256.853333 212.48 464.213333 469.333333 469.333334v8.533333c0 5.12 3.413333 8.533333 8.533333 8.533333s8.533333-3.413333 8.533334-8.533333v-8.533333c256.853333-4.266667 464.213333-212.48 469.333333-469.333334h8.533333c5.12 0 8.533333-3.413333 8.533334-8.533333s-4.266667-8.533333-8.533334-8.533333z m-477.866666 469.333333v-59.733333c0-5.12-3.413333-8.533333-8.533334-8.533334s-8.533333 3.413333-8.533333 8.533334v59.733333c-247.466667-4.266667-447.146667-204.8-452.266667-452.266667h59.733334c5.12 0 8.533333-3.413333 8.533333-8.533333s-3.413333-8.533333-8.533333-8.533333h-59.733334c4.266667-247.466667 204.8-447.146667 452.266667-452.266667v59.733333c0 5.12 3.413333 8.533333 8.533333 8.533334s8.533333-3.413333 8.533334-8.533334V51.2c247.466667 4.266667 447.146667 204.8 452.266666 452.266667h-59.733333c-5.12 0-8.533333 3.413333-8.533333 8.533333s3.413333 8.533333 8.533333 8.533333h59.733333c-5.12 247.466667-205.653333 447.146667-452.266666 452.266667z" p-id="5568"></path><path d="M715.946667 535.893333l-0.853334 0.853334h0.853334z" p-id="5569"></path><path d="M783.36 503.466667h-42.666667c-3.413333-88.746667-56.32-164.693333-133.12-200.533334l14.506667-33.28c1.706667-3.413333 0-8.533333-2.56-10.24-3.413333-2.56-7.68-1.706667-11.093333 0.853334l-31.573334 31.573333c-18.773333-5.973333-38.4-9.386667-58.88-9.386667v-42.666666c0-5.12-3.413333-8.533333-8.533333-8.533334s-8.533333 3.413333-8.533333 8.533334v42.666666c-120.32 4.266667-217.6 101.546667-221.866667 221.866667h-42.666667c-5.12 0-8.533333 3.413333-8.533333 8.533333s3.413333 8.533333 8.533333 8.533334h42.666667c3.413333 87.04 55.466667 162.133333 129.706667 198.826666L392.533333 755.2c-1.706667 3.413333-0.853333 8.533333 2.56 10.24 1.706667 0.853333 3.413333 1.706667 5.12 1.706667 2.56 0 4.266667-0.853333 5.973334-2.56l33.28-33.28c19.626667 5.973333 40.106667 10.24 61.44 10.24v42.666666c0 5.12 3.413333 8.533333 8.533333 8.533334s8.533333-3.413333 8.533333-8.533334v-42.666666c40.96-1.706667 79.36-13.653333 111.786667-34.133334 11.093333 10.24 25.6 17.066667 41.813333 17.066667 33.28 0 59.733333-26.453333 59.733334-59.733333 0-17.066667-7.68-33.28-19.626667-43.52 16.213333-29.866667 26.453333-64.853333 27.306667-101.546667h42.666666c5.12 0 8.533333-3.413333 8.533334-8.533333s-2.56-7.68-6.826667-7.68z m-486.4 17.066666h42.666667c5.12 0 8.533333-3.413333 8.533333-8.533333s-3.413333-8.533333-8.533333-8.533333h-42.666667c4.266667-110.933333 93.866667-200.533333 204.8-204.8v42.666666c0 5.12 3.413333 8.533333 8.533333 8.533334s8.533333-3.413333 8.533334-8.533334v-42.666666c15.36 0.853333 30.72 2.56 45.226666 6.826666L329.386667 539.306667c-2.56 2.56-3.413333 5.973333-1.706667 9.386666 1.706667 3.413333 4.266667 5.12 7.68 5.12h147.626667l-67.413334 150.186667c-67.413333-34.133333-115.2-103.253333-118.613333-183.466667z m139.093333 191.146667c-1.706667-0.853333-2.56-0.853333-4.266666-1.706667l72.533333-162.133333c0.853333-2.56 0.853333-5.973333-0.853333-8.533333s-4.266667-4.266667-6.826667-4.266667H356.693333l225.28-225.28c0.853333 0 1.706667 0.853333 3.413334 0.853333L512 477.866667c-0.853333 2.56-0.853333 5.973333 0.853333 8.533333s4.266667 4.266667 6.826667 4.266667h139.946667L436.053333 711.68zM715.093333 665.6c0 23.893333-18.773333 42.666667-42.666666 42.666667-10.24 0-19.626667-3.413333-27.306667-10.24-4.266667-3.413333-7.68-8.533333-11.093333-13.653334-3.413333-5.973333-5.12-12.8-5.12-19.626666 0-23.893333 18.773333-42.666667 42.666666-42.666667 5.973333 0 11.946667 1.706667 17.92 4.266667 5.12 2.56 10.24 5.973333 13.653334 10.24 6.826667 7.68 11.946667 17.92 11.946666 29.013333z m-34.133333-145.066667h42.666667c-1.706667 33.28-10.24 64-24.746667 91.306667-7.68-4.266667-17.066667-5.973333-26.453333-5.973333-33.28 0-59.733333 26.453333-59.733334 59.733333 0 10.24 2.56 20.48 7.68 29.013333-29.866667 17.92-64.853333 29.013333-101.546666 30.72v-42.666666c0-5.12-3.413333-8.533333-8.533334-8.533334s-8.533333 3.413333-8.533333 8.533334v42.666666c-16.213333-0.853333-32.426667-3.413333-47.786667-7.68L686.08 486.4c2.56-2.56 3.413333-5.973333 1.706667-9.386667-1.706667-3.413333-4.266667-5.12-7.68-5.12H532.48l67.413333-153.6c69.973333 33.28 119.466667 103.253333 122.88 184.32h-42.666666c-5.12 0-8.533333 3.413333-8.533334 8.533334s4.266667 9.386667 9.386667 9.386666z" p-id="5570"></path><path d="M829.44 350.72c12.8-11.093333 20.48-27.306667 20.48-45.226667 0-33.28-26.453333-59.733333-59.733333-59.733333-11.946667 0-22.186667 3.413333-31.573334 9.386667C694.613333 192 606.72 153.6 510.293333 153.6c-118.613333 0-224.426667 58.026667-290.133333 147.626667-6.826667-3.413333-15.36-5.12-23.04-5.12-33.28 0-59.733333 26.453333-59.733333 59.733333 0 22.186667 11.946667 40.96 29.866666 51.2-10.24 33.28-15.36 68.266667-15.36 104.106667 0 197.973333 160.426667 358.4 358.4 358.4s358.4-160.426667 358.4-358.4c0-57.173333-14.506667-112.64-39.253333-160.426667z m-71.68-72.533333c3.413333-4.266667 8.533333-7.68 13.653333-10.24 5.973333-2.56 11.946667-5.12 18.773334-5.12 23.893333 0 42.666667 18.773333 42.666666 42.666666 0 11.093333-4.266667 22.186667-11.946666 29.866667-4.266667 4.266667-8.533333 7.68-13.653334 9.386667-5.12 2.56-11.093333 3.413333-16.213333 3.413333-23.893333 0-42.666667-18.773333-42.666667-42.666667-0.853333-11.093333 3.413333-20.48 9.386667-27.306666z m-603.306667 78.506666c0-23.893333 18.773333-42.666667 42.666667-42.666666 4.266667 0 8.533333 0.853333 12.8 2.56 5.973333 1.706667 10.24 4.266667 14.506667 8.533333 8.533333 7.68 14.506667 18.773333 14.506666 31.573333 0 23.893333-18.773333 42.666667-42.666666 42.666667-3.413333 0-5.973333 0-8.533334-0.853333-5.973333-0.853333-11.093333-3.413333-15.36-6.826667-11.093333-8.533333-17.92-20.48-17.92-34.986667zM510.293333 853.333333c-188.586667 0-341.333333-152.746667-341.333333-341.333333 0-34.133333 5.12-66.56 14.506667-97.28 4.266667 0.853333 9.386667 1.706667 14.506666 1.706667 33.28 0 59.733333-26.453333 59.733334-59.733334 0-18.773333-8.533333-34.986667-22.186667-46.08 62.293333-84.48 162.133333-139.946667 274.773333-139.946666 91.306667 0 174.933333 35.84 236.373334 94.72-9.386667 10.24-15.36 24.746667-15.36 39.253333 0 33.28 26.453333 59.733333 59.733333 59.733333 8.533333 0 17.066667-1.706667 24.746667-5.12 23.04 46.08 35.84 97.28 35.84 152.746667 0 188.586667-153.6 341.333333-341.333334 341.333333z" p-id="5571" data-spm-anchor-id="a313x.search_index.0.i6.6a6d3a815M7aFg" class=""></path></svg>