<?xml version="1.0" standalone="no"?><!DOCTYPE svg PUBLIC "-//W3C//DTD SVG 1.1//EN" "http://www.w3.org/Graphics/SVG/1.1/DTD/svg11.dtd"><svg t="1705223958088" class="icon" viewBox="0 0 1024 1024" version="1.1" xmlns="http://www.w3.org/2000/svg" p-id="1030" xmlns:xlink="http://www.w3.org/1999/xlink" width="200" height="200"><path d="M961.9968 514.4576a449.9968 449.9968 0 1 0-815.36 262.3488 12.5952 12.5952 0 0 0 0.8704 1.3824A448.256 448.256 0 0 0 215.04 852.1728l3.584 3.1232 3.7376 3.1744c2.2528 1.9456 4.608 3.84 6.912 5.7344l1.6384 1.3312a448.1536 448.1536 0 0 0 253.1328 98.048h1.8432c3.5328 0 7.0656 0.3584 10.6496 0.4608H527.4624c3.584 0 7.1168-0.256 10.6496-0.4608h1.8432a447.8976 447.8976 0 0 0 253.2864-98.304l1.4848-1.2288c2.4064-1.9456 4.8128-3.8912 7.168-5.888l3.5328-2.9696 3.9424-3.4816A446.8224 446.8224 0 0 0 876.4928 778.24c0.3072-0.4096 0.5632-0.8704 0.8704-1.3312a447.3856 447.3856 0 0 0 84.6336-262.4512zM512 125.9008a388.4032 388.4032 0 0 1 340.3264 575.8464 411.392 411.392 0 0 0-230.9632-164.5056 188.0064 188.0064 0 1 0-218.7264 0 411.392 411.392 0 0 0-230.9632 164.5056A388.4032 388.4032 0 0 1 512 125.9008z m261.9904 675.2256l-1.6896 1.536c-3.8912 3.5328-7.8848 6.9632-11.8784 10.24l-4.0448 3.328c-2.6624 2.1504-5.12 4.2496-8.1408 6.3488s-6.5024 5.12-9.7792 7.2704l-3.84 2.7648a391.3728 391.3728 0 0 1-155.392 64.4096l-2.5088 0.4608c-3.1744 0.5632-6.4 1.024-9.5744 1.4848-4.1472 0.6144-8.3456 1.1776-12.544 1.6384l-6.2464 0.6144c-5.12 0.4608-10.24 0.8704-15.36 1.1776h-3.1232c-5.9392 0.3072-11.9296 0.4608-17.92 0.4608s-11.9808 0-17.92-0.4608h-3.1232c-5.12-0.3072-10.24-0.7168-15.36-1.1776l-6.2464-0.6144c-4.1984-0.4608-8.3968-1.024-12.544-1.6384-3.1744-0.4608-6.3488-0.9216-9.5232-1.4848l-2.56-0.4608a390.2464 390.2464 0 0 1-155.2896-64.3584l-4.0448-2.8672c-3.2256-2.3552-6.4512-4.7104-9.5744-7.1168s-5.5808-4.3008-8.2944-6.5024l-3.9424-3.2256c-4.0448-3.3792-8.0384-6.8096-11.9808-10.24l-1.5872-1.4848a395.8272 395.8272 0 0 1-40.96-43.8272 351.5392 351.5392 0 0 1 606.0032 0 390.0928 390.0928 0 0 1-41.0112 43.7248zM512 511.0272a126.5664 126.5664 0 1 1 126.5664-126.5152A126.6688 126.6688 0 0 1 512 511.0272z" fill="#57576D" p-id="1031"></path></svg>